<?xml version="1.0" encoding="iso-8859-1"?>
<!-- Generator: Adobe Illustrator 19.0.0, SVG Export Plug-In . SVG Version: 6.00 Build 0)  -->
<svg version="1.1" id="Capa_1" xmlns="http://www.w3.org/2000/svg" xmlns:xlink="http://www.w3.org/1999/xlink" x="0px" y="0px"
	 viewBox="0 0 480 480" style="enable-background:new 0 0 480 480;" xml:space="preserve" >
<path id="XMLID_1776_" d="M473.264,240.053l-41.925-37.269c-12.05-10.71-26.171-18.544-41.341-23.113V175
	c0-13.974-1.92-27.504-5.511-40.347l52.582-52.584c3.917,1.879,8.302,2.931,12.928,2.931c16.542,0,30-13.458,30-30s-13.458-30-30-30
	c-16.542,0-30,13.458-30,30c0,4.626,1.052,9.011,2.931,12.928l-45.952,45.952C353.535,61.545,300.956,25,240,25
	s-113.535,36.545-136.977,88.88L57.072,67.928c1.879-3.917,2.931-8.302,2.931-12.928c0-16.542-13.458-30-30-30s-30,13.458-30,30
	s13.458,30,30,30c4.626,0,9.011-1.052,12.928-2.931l52.582,52.584c-3.591,12.843-5.511,26.373-5.511,40.347v4.671
	c-15.171,4.569-29.292,12.403-41.341,23.114L6.736,240.053c-6.262,5.565-8.385,14.223-5.407,22.055
	C4.307,269.939,11.645,275,20.024,275h10.671c4.083,29.334,26.115,56.22,63.067,76.544c9.715,5.344,20.211,10.093,31.34,14.214
	L65.86,425H50.003c-5.522,0-10,4.478-10,10s4.477,10,10,10h19.98c0.014,0,0.025,0,0.039,0h19.98c5.522,0,10-4.478,10-10
	c0-4.288-2.699-7.945-6.491-9.367l52.952-52.952c25.772,7.239,54.114,11.416,83.537,12.188V435h-10c-5.522,0-10,4.478-10,10
	s4.477,10,10,10H260c5.522,0,10-4.478,10-10s-4.477-10-10-10h-10v-50.131c29.422-0.772,57.765-4.949,83.537-12.188l52.952,52.952
	c-3.792,1.422-6.491,5.079-6.491,9.367c0,5.522,4.477,10,10,10h19.98c0.014,0,0.025,0,0.039,0h19.98c5.522,0,10-4.478,10-10
	s-4.477-10-10-10H414.14l-59.242-59.242c11.13-4.121,21.626-8.87,31.34-14.214c36.953-20.324,58.985-47.21,63.067-76.544h10.671
	c8.379,0,15.717-5.061,18.695-12.893C481.649,254.275,479.526,245.618,473.264,240.053z M449.997,45c5.514,0,10,4.486,10,10
	s-4.486,10-10,10c-2.251,0-4.331-0.748-6.005-2.008c-0.278-0.371-0.587-0.726-0.924-1.063c-0.338-0.337-0.692-0.646-1.063-0.924
	c-1.26-1.674-2.008-3.754-2.008-6.005C439.997,49.486,444.483,45,449.997,45z M37.995,61.005c-0.371,0.278-0.726,0.587-1.063,0.924
	c-0.337,0.338-0.645,0.692-0.924,1.063C34.334,64.252,32.254,65,30.003,65c-5.514,0-10-4.486-10-10s4.486-10,10-10s10,4.486,10,10
	C40.003,57.251,39.255,59.331,37.995,61.005z M110.002,175c0-71.683,58.317-130,129.998-130s129.998,58.317,129.998,130v0.626
	c-3.881-0.415-7.799-0.626-11.738-0.626H121.74c-3.939,0-7.857,0.211-11.738,0.626V175z M376.601,334.02
	C340.277,353.998,291.765,365,240,365c-32.95,0-64.585-4.459-92.594-12.852c-0.588-0.241-31.302-11.142-44.006-18.129
	C73.485,317.566,55.246,296.905,50.974,275h378.051C424.754,296.905,406.515,317.566,376.601,334.02z M439.997,255H20.024
	c0,0,0,0-0.001,0l41.925-37.267c11.377-10.113,25.008-17.091,39.615-20.447c0.419-0.065,0.831-0.157,1.231-0.273
	c6.181-1.33,12.529-2.013,18.946-2.013h236.52c6.417,0,12.765,0.683,18.946,2.013c0.401,0.116,0.812,0.208,1.231,0.273
	c14.606,3.356,28.238,10.334,39.615,20.446L459.976,255H439.997z M230,75c0-5.522,4.477-10,10-10
	c42.314,0,80.213,26.792,94.306,66.668c1.84,5.207-0.89,10.92-6.097,12.761c-1.102,0.389-2.227,0.574-3.332,0.574
	c-4.119,0-7.977-2.565-9.429-6.671C304.175,106.433,273.854,85,240,85C234.478,85,230,80.522,230,75z" stroke="#79ba99" fill="#79ba99"/>
<g>
</g>
<g>
</g>
<g>
</g>
<g>
</g>
<g>
</g>
<g>
</g>
<g>
</g>
<g>
</g>
<g>
</g>
<g>
</g>
<g>
</g>
<g>
</g>
<g>
</g>
<g>
</g>
<g>
</g>
</svg>
